<?xml version="1.0"?>
<svg xmlns="http://www.w3.org/2000/svg" xmlns:xlink="http://www.w3.org/1999/xlink" xmlns:svgjs="http://svgjs.com/svgjs" version="1.1" width="512" height="512" x="0" y="0" viewBox="0 0 512 512" style="enable-background:new 0 0 512 512" xml:space="preserve" class=""><g><circle xmlns="http://www.w3.org/2000/svg" cx="256" cy="256" fill="#6da544" r="256" data-original="#6da544" style="" class=""/><path xmlns="http://www.w3.org/2000/svg" d="m256 100.174 211.478 155.826-211.478 155.826-211.478-155.826z" fill="#ffda44" data-original="#ffda44" style=""/><circle xmlns="http://www.w3.org/2000/svg" cx="256" cy="256" fill="#f0f0f0" r="89.043" data-original="#f0f0f0" style=""/><g xmlns="http://www.w3.org/2000/svg" fill="#0052b4"><path d="m211.478 250.435c-15.484 0-30.427 2.355-44.493 6.725.623 48.64 40.227 87.884 89.015 87.884 30.168 0 56.812-15.017 72.919-37.968-27.557-34.497-69.958-56.641-117.441-56.641z" fill="#0052b4" data-original="#0052b4" style=""/><path d="m343.393 273.06c1.072-5.524 1.651-11.223 1.651-17.06 0-49.178-39.866-89.043-89.043-89.043-36.694 0-68.194 22.201-81.826 53.899 12.05-2.497 24.526-3.812 37.305-3.812 51.717-.001 98.503 21.497 131.913 56.016z" fill="#0052b4" data-original="#0052b4" style=""/></g><g xmlns="http://www.w3.org/2000/svg"/><g xmlns="http://www.w3.org/2000/svg"/><g xmlns="http://www.w3.org/2000/svg"/><g xmlns="http://www.w3.org/2000/svg"/><g xmlns="http://www.w3.org/2000/svg"/><g xmlns="http://www.w3.org/2000/svg"/><g xmlns="http://www.w3.org/2000/svg"/><g xmlns="http://www.w3.org/2000/svg"/><g xmlns="http://www.w3.org/2000/svg"/><g xmlns="http://www.w3.org/2000/svg"/><g xmlns="http://www.w3.org/2000/svg"/><g xmlns="http://www.w3.org/2000/svg"/><g xmlns="http://www.w3.org/2000/svg"/><g xmlns="http://www.w3.org/2000/svg"/><g xmlns="http://www.w3.org/2000/svg"/></g></svg>
