<svg width="185" height="46" viewBox="0 0 185 46" fill="none" xmlns="http://www.w3.org/2000/svg">
<path fill-rule="evenodd" clip-rule="evenodd" d="M131.352 12.5882C131.352 13.178 131.118 13.7436 130.701 14.1606C130.284 14.5777 129.718 14.8119 129.128 14.8119C128.539 14.8119 127.973 14.5777 127.556 14.1606C127.139 13.7436 126.905 13.178 126.905 12.5882C126.897 12.2913 126.95 11.9959 127.06 11.7201C127.17 11.4442 127.335 11.1936 127.546 10.9836C127.756 10.7736 128.006 10.6084 128.282 10.4982C128.558 10.388 128.853 10.3351 129.15 10.3426C129.443 10.3411 129.734 10.3984 130.005 10.5113C130.276 10.6241 130.521 10.7902 130.726 10.9996C130.932 11.209 131.093 11.4576 131.2 11.7304C131.308 12.0033 131.359 12.295 131.352 12.5882ZM127.354 32.2926V37.8596H130.947V31.1736C133.051 30.4893 135.046 29.7894 136.928 29.0874V45.9219H140.455V35.2086H140.543C141.199 36.2064 142.104 37.0166 143.168 37.56C144.231 38.1034 145.418 38.3613 146.611 38.3087C151.201 38.3087 155.583 34.8033 155.583 27.705C155.583 25.2484 154.979 23.1214 153.938 21.4666C153.307 21.7826 152.623 22.1159 151.884 22.4642C152.918 21.9227 153.835 21.4212 154.632 20.9719C155.885 20.2651 156.839 19.6873 157.482 19.2853C157.803 19.0842 158.047 18.9272 158.211 18.8199C158.293 18.7662 158.354 18.725 158.396 18.697L158.444 18.665L158.456 18.6565L158.46 18.6543L158.461 18.6533L158.179 18.2406C158.424 18.5988 158.456 18.6459 158.461 18.6523L157.976 17.7866C157.978 17.7896 157.981 17.7965 157.988 17.8122L157.975 17.7842L157.972 17.7852L157.962 17.7898L157.92 17.8085C157.881 17.8252 157.824 17.8503 157.746 17.8834C157.592 17.9496 157.36 18.0479 157.051 18.1753C156.433 18.4301 155.506 18.8012 154.279 19.2645C153.785 19.4512 153.241 19.6529 152.649 19.868C151.21 18.4703 149.332 17.6819 147.225 17.6819C145.818 17.6234 144.422 17.9494 143.187 18.6249C141.951 19.3005 140.924 20.3 140.214 21.5159H140.137L139.984 18.1311H136.763L136.772 18.3432C136.847 20.1582 136.928 22.1369 136.928 24.5721V24.8287C135.054 25.3463 133.06 25.8743 130.947 26.4061V18.142H127.354V27.2859C124.267 28.0209 120.957 28.7561 117.429 29.4739V27.3435C117.434 26.7811 117.489 26.2203 117.593 25.6675C118.021 22.9838 119.872 21.0668 122.402 21.0668C122.811 21.0627 123.219 21.1031 123.618 21.1873V17.8024C123.285 17.7187 122.943 17.6782 122.6 17.6819C121.348 17.73 120.143 18.1736 119.159 18.9491C118.175 19.7245 117.462 20.7919 117.122 21.9979H116.958L116.838 18.1311H113.694C113.858 19.9056 113.858 21.965 113.858 24.2873L113.868 30.1779C110.943 30.7393 107.881 31.2859 104.684 31.8091C104.68 31.6925 104.678 31.5732 104.678 31.4513V20.8148H109.816V18.131H104.678V13.3988L101.173 14.5052V18.131H98.1169V20.8148H101.173V31.5828C101.173 31.851 101.178 32.1111 101.188 32.363C101.173 32.3654 101.157 32.3678 101.141 32.3702L101.217 32.8668C101.221 32.9099 101.224 32.9528 101.228 32.9955C101.231 32.995 101.234 32.9946 101.237 32.9941L101.293 33.3587C119.727 30.534 133.991 26.8724 143.651 23.9151C147.302 22.7972 150.295 21.78 152.608 20.9466C150.236 22.2275 147.097 23.8009 143.247 25.4675C133.751 29.578 119.94 34.2544 102.686 36.5094L102.815 37.5009C103.012 37.4753 103.208 37.4493 103.404 37.4229C103.692 37.6177 104.002 37.782 104.327 37.9127C104.994 38.1813 105.712 38.3015 106.431 38.2648C107.518 38.2867 108.599 38.1046 109.619 37.7281L109.542 36.4759C111.016 36.2191 112.461 35.9458 113.876 35.6583L113.88 37.8596H117.429V34.8941C120.939 34.0966 124.251 33.2172 127.354 32.2926ZM141.201 23.6078C141.944 23.3882 142.663 23.1717 143.358 22.9589C145.396 22.335 147.227 21.7428 148.848 21.197C148.074 20.7495 147.166 20.4972 146.129 20.4972C144.863 20.533 143.645 20.9881 142.666 21.791C142.054 22.2926 141.557 22.9123 141.201 23.6078ZM150.744 23.0526C148.743 24.0715 146.369 25.2054 143.644 26.3852C142.633 26.823 141.573 27.2671 140.466 27.7139V29.8301C140.478 30.3232 140.533 30.8143 140.63 31.298C140.931 32.4969 141.623 33.5609 142.598 34.3211C143.572 35.0812 144.773 35.4939 146.009 35.4935C149.799 35.4935 152.001 32.3934 152.001 27.8255C152.001 26.0268 151.57 24.3482 150.744 23.0526Z" fill="#FFBA08"/>
<path d="M174.676 22.4908C174.106 18.9197 173.581 15.5458 173.022 12.0296L172.124 12.7635C170.123 14.5276 167.823 15.9189 165.332 16.8713C164.94 17.0431 164.512 17.115 164.086 17.0806C163.659 17.0462 163.248 16.9065 162.889 16.6741C161.345 15.6883 159.745 14.7681 158.157 13.826C158.395 13.4782 158.728 13.2063 159.117 13.0431C159.505 12.8799 159.933 12.8323 160.348 12.9059C161.599 13.0392 162.858 13.1014 164.116 13.0921C164.511 13.0859 164.894 12.9556 165.212 12.7197C169.593 8.99524 173.975 5.2562 178.357 1.50257C179.495 0.500285 180.97 -0.0356299 182.486 0.00184023C183.845 0.00184023 184.414 0.900085 183.834 2.19268C183.513 2.84072 183.07 3.4209 182.53 3.90153C181.248 5.07363 179.912 6.18001 178.576 7.28638C178.402 7.41393 178.259 7.57832 178.157 7.76773C178.055 7.95714 177.996 8.16685 177.984 8.3818C177.699 12.0843 177.349 15.7868 177.064 19.4894C177.061 19.8643 176.967 20.233 176.79 20.5633C176.612 20.8936 176.357 21.1755 176.045 21.3844C175.57 21.7292 175.113 22.0985 174.676 22.4908V22.4908Z" fill="#47585B"/>
<path d="M162.604 6.92489C163.623 6.04855 164.335 4.90932 165.978 5.16126C167.621 5.41321 169.265 5.42416 170.995 5.54466L171.554 5.62134C170.305 6.71676 169.166 7.63691 168.016 8.58992C167.95 8.63755 167.875 8.67093 167.796 8.68791C167.717 8.70489 167.635 8.7051 167.556 8.68851C166.022 8.20653 164.488 7.71359 162.966 7.2097C162.856 7.17683 162.78 7.06729 162.604 6.92489Z" fill="#47585B"/>
<path fill-rule="evenodd" clip-rule="evenodd" d="M67.7409 8.91858H71.3229V35.6894C73.5452 35.5219 75.7664 35.3367 77.9862 35.1339C76.687 33.4096 75.9127 31.0709 75.9127 28.3185C75.9127 21.7459 79.9439 17.7148 84.7528 17.7148C85.9246 17.6388 87.0954 17.8781 88.1433 18.4079C89.1913 18.9377 90.0782 19.7385 90.7119 20.7272H90.7885V8.91858H94.3925V32.7659C94.3925 32.9451 94.3925 33.1268 94.3926 33.3102C96.6451 33.015 98.8956 32.7015 101.144 32.3698L101.29 33.3591C69.5324 38.0446 37.344 39.0933 5.34884 36.4847L5.40631 35.7799C5.37053 35.7771 5.33475 35.7742 5.29897 35.7714L0 18.131H3.66966L6.27676 28.1541C6.84638 30.345 7.37218 32.3934 7.74463 34.4309H7.86512C8.299 32.5049 8.91688 30.4665 9.55089 28.3749L9.6178 28.1541L12.8383 18.131H15.8507L18.907 27.9898C19.6409 30.3559 20.2105 32.4372 20.6596 34.4309H20.813C21.1934 32.2721 21.6944 30.1364 22.3137 28.0336L25.129 18.1749H28.6781L22.7498 36.5415C26.72 36.7011 30.6914 36.8043 34.6629 36.8515C32.0561 35.1781 30.376 32.142 30.376 28.1542C30.376 21.5816 34.703 17.6819 40.1582 17.6819C45.8653 17.6819 49.6993 21.8007 49.6993 27.8365C49.6993 32.3255 47.7874 35.2551 45.1961 36.8447C48.2096 36.8051 51.2225 36.7332 54.2343 36.6289V24.2873V24.2872C54.2343 21.9649 54.2343 19.9056 54.07 18.1311H57.2139L57.3344 21.9979H57.4987C57.8382 20.7919 58.5512 19.7245 59.5352 18.9491C60.5193 18.1736 61.7238 17.73 62.9758 17.6819C63.3191 17.6782 63.6615 17.7187 63.9945 17.8024V21.1873C63.5948 21.1031 63.1871 21.0627 62.7786 21.0668C60.2482 21.0668 58.4517 22.9838 57.9697 25.6676C57.8557 26.234 57.7934 26.8096 57.7835 27.3874V36.491C61.1044 36.348 64.4238 36.1657 67.7409 35.9441V8.91858ZM18.534 36.351L16.0151 28.4828C15.3249 26.2919 14.7553 24.3311 14.2624 22.0088H14.2405C13.7465 24.2001 13.1284 26.3616 12.3892 28.4828L9.90056 35.8286C12.7772 36.0323 15.6552 36.2065 18.534 36.351ZM89.0542 33.9751C89.843 33.2244 90.3884 32.2496 90.6133 31.1775C90.7471 30.655 90.8133 30.1175 90.8104 29.5782V26.1605C90.8155 25.6519 90.7603 25.1445 90.6461 24.6488C90.389 23.4637 89.731 22.4036 88.7831 21.6473C87.8352 20.8909 86.6555 20.4847 85.4429 20.4972C81.7294 20.4972 79.5276 23.7834 79.5276 28.1651C79.5276 31.0026 80.5206 33.4962 82.4868 34.6983C84.6775 34.4745 86.8667 34.2334 89.0542 33.9751ZM34.0457 28.0337C34.0457 32.3606 36.5323 35.614 40.0377 35.614C43.543 35.614 46.0296 32.3934 46.0296 27.946C46.0296 24.605 44.3646 20.3657 40.1253 20.3657C35.886 20.3657 34.0457 24.2873 34.0457 28.0337Z" fill="#47585B"/>
</svg>
